#!OML:ASF F:\VICON\USERDATA\INSTALL\rory3\rory3.ASF
:FULLY-SPECIFIED
:DEGREES
591
root 1.67825 18.0224 -4.53468 -179.05 99.1237 -183.225
lowerback 4.85267 -2.89303 -5.35359
upperback 0.307487 -4.10534 1.52223
thorax -1.91197 -1.99909 4.82367
lowerneck -13.1753 -11.8448 -15.2525
upperneck 27.1987 -14.3189 5.42449
head 12.818 -7.2054 2.28788
rclavicle -1.05107e-014 1.88845e-015
rhumerus -34.6425 -7.03506 -78.8024
rradius 40.6642
rwrist 22.2466
rhand -17.4195 3.79291
rfingers 7.12502
rthumb 8.83052 -26.0023
lclavicle -1.05107e-014 1.88845e-015
lhumerus -31.9557 14.4257 72.9214
lradius 27.3658
lwrist -11.8705
lhand -6.13067 29.8069
lfingers 7.12502
lthumb 19.7067 58.828
rfemur -20.8615 5.0521 22.6794
rtibia 27.5694
rfoot -9.66198 -7.66299
rtoes 13.4869
lfemur 0.997921 4.21867 -16.9939
ltibia 35.4693
lfoot 3.59171 -9.69996
ltoes -34.2598
592
root 1.74181 18.0249 -4.51668 -179.497 99.7047 -183.514
lowerback 4.92608 -2.95356 -5.28382
upperback 0.281366 -4.18549 1.57352
thorax -1.97149 -2.03708 4.84746
lowerneck -13.2249 -11.9532 -15.3211
upperneck 27.1756 -14.4555 5.41388
head 12.8411 -7.27422 2.26365
rclavicle 2.90226e-014 6.95746e-015
rhumerus -34.4897 -6.74335 -79.047
rradius 41.1946
rwrist 22.4531
rhand -17.4359 3.79364
rfingers 7.12502
rthumb 8.81472 -26.0023
lclavicle 2.90226e-014 6.95746e-015
lhumerus -31.5732 13.9187 72.9845
lradius 27.4408
lwrist -11.9086
lhand -6.40904 30.237
lfingers 7.12502
lthumb 19.4391 59.2853
rfemur -20.4551 5.30355 22.7965
rtibia 27.5554
rfoot -9.83515 -7.178
rtoes 14.5168
lfemur 0.577814 4.58407 -16.6879
ltibia 36.6459
lfoot 5.01459 -10.4181
ltoes -33.7056
593
root 1.8025 18.0309 -4.49941 -179.465 100.261 -183.301
lowerback 5.07529 -3.08616 -5.31412
upperback 0.275264 -4.36971 1.65222
thorax -2.03052 -2.1265 4.96537
lowerneck -13.4741 -12.0951 -15.5894
upperneck 27.1968 -14.5661 5.41892
head 12.9416 -7.34429 2.2664
rclavicle -2.9563e-014 -6.85807e-015
rhumerus -34.2582 -6.14648 -79.3349
rradius 41.7775
rwrist 22.4797
rhand -17.8884 3.42045
rfingers 7.12502
rthumb 8.37806 -26.3934
lclavicle -2.9563e-014 -6.85807e-015
lhumerus -31.1927 13.6523 73.134
lradius 27.5843
lwrist -11.5872
lhand -7.17025 30.8515
lfingers 7.12502
lthumb 18.7071 59.972
rfemur -20.001 5.59133 22.8274
rtibia 27.4699
rfoot -9.87187 -6.80271
rtoes 14.3136
lfemur 0.121176 4.89143 -16.4737
ltibia 37.9001
lfoot 6.46848 -11.1863
ltoes -33.0267
594
root 1.85998 18.0299 -4.48163 -180.049 100.743 -183.843
lowerback 5.09758 -3.23614 -5.23512
upperback 0.223119 -4.56452 1.7779
thorax -2.06881 -2.222 5.06502
lowerneck -13.5396 -12.1674 -15.8104
upperneck 27.1401 -14.611 5.42785
head 12.9603 -7.38494 2.28802
rclavicle 2.43884e-014 -1.08835e-014
rhumerus -34.0421 -5.60358 -79.5011
rradius 42.3738
rwrist 22.5445
rhand -18.3238 3.02524
rfingers 7.12502
rthumb 7.95779 -26.805
lclavicle 2.43884e-014 -1.08835e-014
lhumerus -30.779 13.3028 73.3797
lradius 27.7731
lwrist -11.2216
lhand -8.20488 31.8629
lfingers 7.12502
lthumb 17.7117 61.0763
rfemur -19.67 5.77077 23.0283
rtibia 27.3515
rfoot -9.83887 -6.43394
rtoes 14.9089
lfemur -0.511818 5.10078 -16.1089
ltibia 39.2052
lfoot 7.98992 -11.9473
ltoes -31.8279
595
root 1.91267 18.0288 -4.46804 -181.289 101.092 -185.203
lowerback 5.04801 -3.42893 -4.95453
upperback 0.111697 -4.80131 1.94216
thorax -2.13579 -2.33816 5.09148
lowerneck -13.4314 -12.1534 -15.9761
upperneck 26.8912 -14.6078 5.57458
head 12.8651 -7.38756 2.37567
rclavicle -4.64224e-014 6.26172e-015
rhumerus -33.8034 -5.13554 -79.6054
rradius 42.8342
rwrist 22.6928
rhand -18.7264 3.17988
rfingers 7.12502
rthumb 7.56927 -26.6647
lclavicle -4.64224e-014 6.26172e-015
lhumerus -30.4114 12.9852 73.5002
lradius 28.019
lwrist -11.5027
lhand -8.711 32.4929
lfingers 7.12502
lthumb 17.2246 61.7495
rfemur -19.5017 5.76284 23.3858
rtibia 27.1937
rfoot -9.73933 -6.04899
rtoes 15.2958
lfemur -1.40464 5.24652 -15.5643
ltibia 40.554
lfoot 9.53624 -12.7343
ltoes -30.2121
596
root 1.96963 18.0318 -4.46187 -181.994 101.569 -185.921
lowerback 5.03362 -3.51668 -4.68226
upperback 0.0652673 -4.90152 1.98375
thorax -2.18252 -2.38831 4.98831
lowerneck -13.314 -12.2063 -15.9939
upperneck 26.5669 -14.7539 5.76612
head 12.7455 -7.4369 2.43059
rclavicle 1.0407e-013 -2.23633e-015
rhumerus -33.6613 -4.89117 -79.7474
rradius 43.4151
rwrist 23.0709
rhand -19.2044 3.33411
rfingers 7.12502
rthumb 7.10784 -26.5265
lclavicle 1.0407e-013 -2.23633e-015
lhumerus -29.9717 12.3906 73.5837
lradius 28.2498
lwrist -11.7362
lhand -9.27915 32.6829
lfingers 7.12502
lthumb 16.6777 61.9865
rfemur -19.2247 5.61105 23.6404
rtibia 27.0226
rfoot -9.49003 -5.47704
rtoes 14.7105
lfemur -2.16018 5.494 -15.1754
ltibia 41.8901
lfoot 10.9242 -13.491
ltoes -28.4021
597
root 2.02966 18.0401 -4.4539 -181.696 102.112 -185.534
lowerback 5.06934 -3.55312 -4.66994
upperback 0.0129616 -4.95191 1.98629
thorax -2.25155 -2.41037 4.99184
lowerneck -13.086 -12.2593 -16.0264
upperneck 26.2195 -14.8831 5.87064
head 12.5876 -7.49361 2.46432
rclavicle -4.91247e-014 1.56543e-014
rhumerus -33.5882 -4.73036 -79.7746
rradius 43.9975
rwrist 23.5625
rhand -19.6553 3.2719
rfingers 7.12502
rthumb 6.67257 -26.603
lclavicle -4.91247e-014 1.56543e-014
lhumerus -29.5239 12.158 73.5164
lradius 28.2175
lwrist -12.9053
lhand -8.95427 31.7881
lfingers 7.12502
lthumb 16.9905 61.065
rfemur -18.8843 5.69319 23.6189
rtibia 26.8961
rfoot -9.39544 -4.98882
rtoes 14.5732
lfemur -2.76798 5.75151 -15.0399
ltibia 43.1657
lfoot 12.1916 -14.2721
ltoes -27.0171
